<?xml version="1.0" encoding="UTF-8" standalone="no"?>
<!DOCTYPE svg PUBLIC "-//W3C//DTD SVG 1.1//EN" "http://www.w3.org/Graphics/SVG/1.1/DTD/svg11.dtd">
<svg width="100%" height="100%" viewBox="0 0 4000 4000" version="1.1" xmlns="http://www.w3.org/2000/svg" xmlns:xlink="http://www.w3.org/1999/xlink" xml:space="preserve" xmlns:serif="http://www.serif.com/" style="fill-rule:evenodd;clip-rule:evenodd;stroke-linejoin:round;stroke-miterlimit:2;">
    <g>
        <g>
            <path id="bg" d="M1562.54,460.996C1647.5,418.979 1731.95,413.823 1804.49,444.627C1804.49,444.627 1804.49,444.627 1804.49,444.627C1883.88,478.337 1942.33,552.502 1968.33,656.724C1999,779.688 1983.76,949.756 1911.81,1119.21C1881.12,1191.5 1843.32,1256.54 1801.61,1312.04C1799.68,1314.6 1797.65,1317.03 1795.52,1319.33L1991.77,1314.66C1992.2,1314.64 1992.63,1314.64 1993.06,1314.63L2119.53,1313.35C2128.17,1260.14 2141.22,1189.21 2157.61,1126.86C2157.61,1126.86 2157.61,1126.86 2157.61,1126.86C2174.88,1061.14 2197.87,1003.9 2220.26,971.306L2243.68,937.22C2273.31,894.087 2332.3,883.142 2375.43,912.774L2443.6,959.604C2457.36,969.057 2467.84,981.496 2474.76,995.46C2518.8,951.43 2568.26,920.792 2620.14,907.902C2620.14,907.902 2660.27,897.931 2660.27,897.931C2684.66,891.871 2710.46,895.748 2731.99,908.709C2753.52,921.67 2769.02,942.653 2775.08,967.042L2795.02,1047.31C2801.08,1071.7 2797.2,1097.49 2784.24,1119.02C2771.28,1140.55 2750.3,1156.05 2725.91,1162.11L2685.77,1172.09C2674.24,1174.95 2666.73,1186.41 2657.64,1197.3C2657.64,1197.3 2657.64,1197.3 2657.63,1197.31C2635.38,1223.95 2616.71,1258.18 2600.26,1293.94C2578.2,1341.88 2560.55,1392.77 2547.09,1437.56C2726.13,1562.11 2844.26,1768.56 2846.64,2003.06C2850.53,2387.76 2541.36,2703.28 2156.65,2707.2L2007.18,2708.73C2006.75,2708.73 2006.32,2708.73 2005.89,2708.73L974.757,2705.2C968.343,2705.18 961.949,2704.51 955.672,2703.2C668.259,2643.05 445.007,2405.47 407.431,2109.47L293.095,2047.14C260.381,2029.31 241.155,1993.96 243.965,1956.8C246.774,1919.65 271.097,1887.59 306.121,1874.88L428.163,1830.58C496.974,1588.1 694.002,1398.77 941.876,1341.6C948.125,1340.16 954.505,1339.36 960.916,1339.2L1203.93,1333.42C1096.39,1235.18 987.607,1085.97 903.172,905.052C797.907,679.503 754.707,456.587 770.287,298.312C783.853,160.496 843.376,65.678 928.677,25.85C928.677,25.85 928.677,25.85 928.677,25.849C1013.99,-13.982 1124.89,1.27 1239.24,79.377C1348.37,153.922 1465.65,288.269 1562.54,460.996Z" style="fill:rgb(254,190,0);"/>
            <path id="bee" d="M497.272,2050.53L338.45,1963.95L508.241,1902.32C554.507,1671.03 733.6,1486.88 963.172,1433.93L975.081,2610.45C711.751,2555.34 510.771,2327.84 497.273,2050.53L497.272,2050.53ZM1246.19,1417.01L1344.82,1416L1357.01,2620.6L1258.38,2621.6L1246.19,1417.01ZM1627.98,1413.12L1710.86,1412.27L1723.05,2616.87L1640.17,2617.71L1627.98,1413.12ZM2200.99,1409.99L2201.42,1406.59C2201.42,1406.59 2219.53,1263.99 2249.25,1150.95C2263.18,1097.96 2280.3,1051.24 2298.36,1024.96L2321.78,990.875L2389.94,1037.7L2366.53,1071.79C2352.25,1092.57 2340.25,1130.09 2329.24,1171.98C2300.76,1280.31 2283.47,1416.99 2283.47,1416.99L2282.76,1422.61C2309.42,1428.64 2335.42,1436.44 2360.62,1445.88C2382.16,1364.16 2420.49,1242.08 2476.47,1147.91C2521.09,1072.87 2577.91,1016.03 2642.99,999.861L2683.12,989.89L2703.06,1070.15L2662.93,1080.12C2633.55,1087.42 2608.09,1108.8 2584.9,1136.57C2557.7,1169.14 2534.29,1210.62 2514.18,1254.34C2477.42,1334.23 2451.83,1421.66 2436.88,1480.71C2622.59,1581.78 2749.6,1777.78 2751.89,2004.02C2755.25,2336.43 2488.1,2609.07 2155.69,2612.45L2006.21,2613.98L1994.02,1409.38L2143.49,1407.86C2162.88,1407.66 2182.07,1408.38 2200.99,1409.99ZM2490.45,1648.42C2435.06,1648.98 2390.54,1694.42 2391.1,1749.82C2391.67,1805.23 2437.09,1849.75 2492.49,1849.18C2547.88,1848.62 2592.4,1803.18 2591.84,1747.78C2591.28,1692.37 2545.85,1647.85 2490.45,1648.42ZM968.764,111.707C1118.89,41.611 1371.74,265.324 1533.06,610.97C1694.37,956.617 1703.46,1294.15 1553.33,1364.24C1403.2,1434.34 1150.35,1210.62 989.036,864.979C827.721,519.332 818.637,181.803 968.764,111.707ZM2200.99,1409.99L2200.99,1409.99L2200.99,1409.99L2200.99,1409.99ZM1725.86,1255.11C1732.34,1230.8 1737.05,1204.55 1739.81,1176.46C1755.23,1019.8 1712.19,799.233 1608,575.993C1603.99,567.399 1599.92,558.876 1595.79,550.396C1656.08,518.3 1716.01,509.996 1767.46,531.844C1903.43,589.583 1929.04,836.179 1824.59,1082.18C1797.07,1147 1763.25,1205.35 1725.86,1255.11Z"/>
        </g>
    </g>
</svg>
