<?xml version="1.0" encoding="UTF-8" standalone="no"?>
<!DOCTYPE svg PUBLIC "-//W3C//DTD SVG 1.1//EN" "http://www.w3.org/Graphics/SVG/1.1/DTD/svg11.dtd">
<svg width="100%" height="100%" viewBox="0 0 4000 4000" version="1.1" xmlns="http://www.w3.org/2000/svg" xmlns:xlink="http://www.w3.org/1999/xlink" xml:space="preserve" xmlns:serif="http://www.serif.com/" style="fill-rule:evenodd;clip-rule:evenodd;stroke-linejoin:round;stroke-miterlimit:2;">
    <g>
        <path id="bee" d="M3237.01,2368.25L3419.96,2313.72L3258.21,2212.85C3261.2,1963.94 3116.73,1734.55 2891.36,1629.52L2620.91,2841.42C2904.84,2842.31 3162.23,2651.55 3237.01,2368.25L3237.01,2368.25ZM2602.91,1549.95L2501.32,1527.27L2224.42,2768.09L2326.02,2790.77L2602.91,1549.95ZM2209.65,1462.16L2124.28,1443.1L1847.38,2683.92L1932.75,2702.98L2209.65,1462.16ZM1618.82,1333.19L1619.12,1329.59C1619.12,1329.59 1631.72,1178.41 1625.84,1055.2C1623.09,997.446 1615.66,945.462 1602.79,914.367L1586.1,874.044L1505.45,907.429L1522.14,947.752C1532.32,972.335 1536.48,1013.7 1538.66,1059.36C1544.29,1177.44 1532.14,1322.32 1532.14,1322.32L1531.64,1328.29C1502.79,1328.66 1474.24,1331.01 1446.16,1335.22C1441.85,1246.13 1429.07,1111.7 1391.95,1002.21C1362.36,914.954 1316.17,843.807 1252.54,812.84L1213.3,793.741L1175.1,872.222L1214.35,891.321C1243.08,905.304 1264.66,932.959 1282.5,966.708C1303.43,1006.3 1318.5,1054.25 1329.67,1103.8C1350.09,1194.34 1357.32,1290.2 1359.8,1354.45C1145.92,1418.02 971.798,1592.48 919.792,1825.53C843.38,2167.94 1059.33,2508 1401.74,2584.43L1555.71,2618.8L1832.61,1377.98L1678.64,1343.61C1658.67,1339.15 1638.71,1335.69 1618.82,1333.19ZM1267.69,1515.81C1324.75,1528.55 1360.74,1585.22 1348,1642.29C1335.27,1699.36 1278.6,1735.35 1221.54,1722.61C1164.48,1709.88 1128.5,1653.2 1141.23,1596.13C1153.97,1539.06 1210.63,1503.07 1267.69,1515.81ZM3175.71,263.363C3036.12,158.063 2726.01,333.519 2483.64,654.932C2241.28,976.345 2157.84,1322.78 2297.43,1428.08C2437.03,1533.38 2747.13,1357.93 2989.5,1036.51C3231.87,715.1 3315.31,368.664 3175.71,263.363ZM1618.82,1333.19L1618.82,1333.19L1618.82,1333.19L1618.82,1333.19ZM2143.28,1277.57C2141.92,1251.05 2142.82,1222.92 2146.13,1193.31C2164.59,1028.22 2257.42,809.969 2413.96,602.381C2419.98,594.389 2426.05,586.483 2432.18,578.637C2376.99,532.276 2316.94,510.554 2259.04,521.818C2106,551.586 2025.47,800.528 2079.3,1077.39C2093.49,1150.34 2115.6,1218 2143.28,1277.57Z"/>
    </g>
</svg>
