<?xml version="1.0" encoding="UTF-8" standalone="no"?>
<!DOCTYPE svg PUBLIC "-//W3C//DTD SVG 1.1//EN" "http://www.w3.org/Graphics/SVG/1.1/DTD/svg11.dtd">
<svg width="100%" height="100%" viewBox="0 0 4000 4000" version="1.1" xmlns="http://www.w3.org/2000/svg" xmlns:xlink="http://www.w3.org/1999/xlink" xml:space="preserve" xmlns:serif="http://www.serif.com/" style="fill-rule:evenodd;clip-rule:evenodd;stroke-linejoin:round;stroke-miterlimit:2;">
    <g>
        <path id="bg" d="M2486.12,493.647C2407.64,431.631 2321.59,407.777 2239.94,423.658C2239.94,423.658 2239.94,423.658 2239.94,423.658C2150.6,441.038 2073.99,504.773 2024.28,606.656C1965.63,726.861 1944.06,905.766 1981.14,1096.48C1996.96,1177.84 2021.72,1253.27 2052.6,1319.72C2054.02,1322.78 2055.58,1325.74 2057.28,1328.58L1855.72,1280.69C1855.28,1280.59 1854.84,1280.49 1854.39,1280.39L1724.11,1251.3C1726.87,1194.48 1728.97,1118.4 1725.73,1050.44C1725.73,1050.44 1725.73,1050.44 1725.73,1050.44C1722.32,978.816 1711.15,914.681 1695.19,876.119L1678.49,835.794C1657.37,784.766 1598.88,760.524 1547.85,781.649L1467.2,815.034C1450.93,821.772 1437.37,832.314 1427.17,845.21C1391.36,790.093 1347.04,747.616 1296.31,722.925C1296.31,722.925 1257.07,703.826 1257.07,703.826C1233.22,692.219 1205.74,690.561 1180.67,699.216C1155.6,707.871 1134.99,726.131 1123.39,749.978L1085.19,828.459C1073.58,852.306 1071.92,879.787 1080.58,904.857C1089.24,929.927 1107.49,950.531 1131.34,962.138L1170.58,981.237C1181.86,986.724 1187.1,1000.2 1194.1,1013.44C1194.1,1013.45 1194.1,1013.45 1194.1,1013.45C1211.22,1045.84 1222.98,1085.26 1232.12,1125.8C1244.38,1180.12 1251.43,1236.53 1255.5,1285.72C1043.34,1375 876.098,1562.19 822.193,1803.75C733.761,2200.03 983.685,2593.57 1379.95,2682.03L1533.92,2716.4C1534.36,2716.5 1534.81,2716.6 1535.25,2716.69L2600.46,2939.3C2607.08,2940.69 2613.83,2941.39 2620.6,2941.42C2930.49,2942.39 3213.08,2746.12 3316.82,2448.81L3448.53,2409.56C3486.21,2398.33 3513.81,2366.05 3519.07,2327.08C3524.32,2288.11 3506.24,2249.68 3472.88,2228.87L3356.61,2156.37C3338.79,1890.95 3176.94,1652.28 2933.6,1538.88C2927.47,1536.02 2921.06,1533.79 2914.47,1532.22L2664.88,1472.93C2797.45,1395.11 2942.49,1264.95 3069.35,1096.72C3227.5,886.985 3321.01,666.35 3339.65,499.545C3355.89,354.302 3315.25,243.361 3235.93,183.53C3235.93,183.53 3235.93,183.53 3235.93,183.529C3156.61,123.693 3038.77,115.103 2903.6,170.642C2774.58,223.648 2624.04,336.6 2486.12,493.647Z" style="fill:rgb(254,190,0);"/>
        <path id="bee" d="M3237.01,2368.25L3419.96,2313.72L3258.21,2212.85C3261.2,1963.94 3116.73,1734.55 2891.36,1629.52L2620.91,2841.42C2904.84,2842.31 3162.23,2651.55 3237.01,2368.25L3237.01,2368.25ZM2602.91,1549.95L2501.32,1527.27L2224.42,2768.09L2326.02,2790.77L2602.91,1549.95ZM2209.65,1462.16L2124.28,1443.1L1847.38,2683.92L1932.75,2702.98L2209.65,1462.16ZM1618.82,1333.19L1619.12,1329.59C1619.12,1329.59 1631.72,1178.41 1625.84,1055.2C1623.09,997.446 1615.66,945.462 1602.79,914.367L1586.1,874.044L1505.45,907.429L1522.14,947.752C1532.32,972.335 1536.48,1013.7 1538.66,1059.36C1544.29,1177.44 1532.14,1322.32 1532.14,1322.32L1531.64,1328.29C1502.79,1328.66 1474.24,1331.01 1446.16,1335.22C1441.85,1246.13 1429.07,1111.7 1391.95,1002.21C1362.36,914.954 1316.17,843.807 1252.54,812.84L1213.3,793.741L1175.1,872.222L1214.35,891.321C1243.08,905.304 1264.66,932.959 1282.5,966.708C1303.43,1006.3 1318.5,1054.25 1329.67,1103.8C1350.09,1194.34 1357.32,1290.2 1359.8,1354.45C1145.92,1418.02 971.798,1592.48 919.792,1825.53C843.38,2167.94 1059.33,2508 1401.74,2584.43L1555.71,2618.8L1832.61,1377.98L1678.64,1343.61C1658.67,1339.15 1638.71,1335.69 1618.82,1333.19ZM1267.69,1515.81C1324.75,1528.55 1360.74,1585.22 1348,1642.29C1335.27,1699.36 1278.6,1735.35 1221.54,1722.61C1164.48,1709.88 1128.5,1653.2 1141.23,1596.13C1153.97,1539.06 1210.63,1503.07 1267.69,1515.81ZM3175.71,263.363C3036.12,158.063 2726.01,333.519 2483.64,654.932C2241.28,976.345 2157.84,1322.78 2297.43,1428.08C2437.03,1533.38 2747.13,1357.93 2989.5,1036.51C3231.87,715.1 3315.31,368.664 3175.71,263.363ZM1618.82,1333.19L1618.82,1333.19L1618.82,1333.19L1618.82,1333.19ZM2143.28,1277.57C2141.92,1251.05 2142.82,1222.92 2146.13,1193.31C2164.59,1028.22 2257.42,809.969 2413.96,602.381C2419.98,594.389 2426.05,586.483 2432.18,578.637C2376.99,532.276 2316.94,510.554 2259.04,521.818C2106,551.586 2025.47,800.528 2079.3,1077.39C2093.49,1150.34 2115.6,1218 2143.28,1277.57Z"/>
    </g>
</svg>
